<svg xmlns="http://www.w3.org/2000/svg" width="414.298" height="414.299"><path fill="#333" d="M3.663 410.637a12.465 12.465 0 008.839 3.661c3.199 0 6.398-1.221 8.839-3.661l185.809-185.81 185.81 185.811a12.465 12.465 0 008.84 3.661c3.198 0 6.397-1.221 8.839-3.661 4.881-4.881 4.881-12.796 0-17.679l-185.811-185.81 185.811-185.81c4.881-4.882 4.881-12.796 0-17.678-4.882-4.882-12.796-4.882-17.679 0l-185.81 185.81L21.34 3.663c-4.882-4.882-12.796-4.882-17.678 0-4.882 4.881-4.882 12.796 0 17.678l185.81 185.809L3.663 392.959c-4.882 4.882-4.882 12.797 0 17.678z"/></svg>